<?xml version="1.0" standalone="no"?>
<!DOCTYPE svg PUBLIC "-//W3C//DTD SVG 20010904//EN"
 "http://www.w3.org/TR/2001/REC-SVG-20010904/DTD/svg10.dtd">
<svg version="1.0" xmlns="http://www.w3.org/2000/svg"
 width="1600.000000pt" height="896.000000pt" viewBox="0 0 1600.000000 896.000000"
 preserveAspectRatio="xMidYMid meet">

<g transform="translate(0.000000,896.000000) scale(0.100000,-0.100000)"
fill="#000000" stroke="none">
<path d="M5012 5090 c-235 -62 -399 -238 -448 -480 -67 -334 133 -660 448
-735 94 -22 257 -19 348 6 154 42 290 154 355 291 19 40 37 85 40 99 l6 26
-118 17 c-65 10 -125 20 -135 22 -12 4 -20 -7 -32 -43 -43 -127 -154 -206
-291 -207 -96 -1 -162 24 -230 86 -137 125 -172 341 -84 517 77 154 248 226
416 176 68 -20 144 -89 178 -161 22 -47 30 -55 48 -51 12 3 71 11 130 18 l109
12 -6 31 c-22 112 -147 266 -265 325 -139 71 -319 90 -469 51z"/>
<path d="M10263 5103 c-12 -2 -36 -20 -53 -39 -58 -66 -28 -159 59 -185 72
-21 144 35 144 112 0 49 -25 87 -68 105 -35 14 -42 15 -82 7z"/>
<path d="M5962 4993 l3 -98 120 0 120 0 0 95 0 95 -123 3 -123 3 3 -98z"/>
<path d="M8640 4480 l1 -600 119 0 120 0 2 248 3 247 235 1 c129 1 256 2 283
3 l47 1 0 98 0 99 -272 1 c-150 1 -279 1 -286 2 -10 0 -12 33 -10 146 l3 145
318 -1 317 -1 0 106 0 105 -440 0 -440 0 0 -600z"/>
<path d="M9700 4479 l0 -600 113 3 c61 2 111 6 110 11 -2 4 -3 273 -3 597 l0
590 -110 -1 -110 -1 0 -599z"/>
<path d="M6895 4791 c-72 -19 -160 -85 -193 -146 -9 -16 -11 -4 -12 58 l0 77
-125 0 -125 0 0 -450 0 -450 124 0 125 0 3 283 c3 269 4 284 25 323 76 142
274 152 343 18 25 -48 25 -51 28 -336 l3 -288 125 0 124 0 0 288 c0 158 -4
314 -9 347 -25 175 -138 274 -320 281 -47 2 -99 0 -116 -5z"/>
<path d="M7845 4786 c-128 -31 -233 -117 -290 -238 -89 -189 -59 -410 74 -551
97 -102 206 -142 371 -135 98 4 114 8 184 41 89 42 160 110 200 189 l27 53
-53 7 c-29 3 -81 6 -116 7 -62 1 -64 0 -100 -40 -44 -49 -72 -65 -134 -74 -64
-10 -144 15 -185 57 -36 37 -63 94 -63 133 l0 25 335 0 335 0 0 63 c-1 185
-90 347 -236 424 -96 51 -237 66 -349 39z m219 -188 c45 -23 87 -73 101 -122
8 -27 15 -51 15 -53 0 -2 -94 -3 -210 -3 -236 0 -227 -4 -191 75 21 47 80 102
119 111 15 3 32 7 37 10 16 6 107 -6 129 -18z"/>
<path d="M5960 4330 l0 -450 125 0 125 0 0 450 0 450 -125 0 -125 0 0 -450z"/>
<path d="M11218 4758 c-10 -10 -18 -22 -18 -26 0 -5 -11 -22 -25 -38 -26 -30
-33 -50 -13 -38 7 4 8 3 4 -5 -4 -6 -11 -9 -15 -7 -4 3 -26 -26 -50 -64 -24
-37 -52 -70 -62 -73 -10 -3 -17 -1 -13 4 9 16 -7 33 -18 18 -8 -11 -8 -10 -4
4 7 22 -71 150 -86 140 -6 -3 -8 -1 -5 5 4 5 -5 28 -19 50 l-26 40 -132 1
c-72 0 -124 -3 -116 -7 8 -4 16 -14 18 -22 2 -8 12 -20 23 -28 10 -7 19 -22
19 -34 0 -13 5 -18 14 -15 11 4 13 1 9 -10 -5 -12 -3 -14 7 -8 9 5 11 4 6 -4
-4 -6 0 -24 9 -38 14 -21 19 -23 27 -12 7 11 8 9 4 -5 -6 -19 51 -122 62 -111
7 7 32 -15 32 -28 0 -6 -7 -2 -15 9 -8 10 -15 14 -15 7 0 -6 8 -18 18 -25 10
-7 27 -32 39 -54 21 -41 21 -42 3 -72 -10 -16 -23 -33 -29 -36 -6 -4 -11 -12
-11 -17 0 -6 5 -7 12 -3 7 4 8 3 4 -5 -4 -6 -11 -9 -16 -6 -10 6 -53 -61 -46
-73 2 -4 0 -14 -6 -22 -8 -12 -9 -11 -4 4 7 19 6 20 -14 1 -11 -10 -18 -25
-15 -32 2 -8 1 -12 -4 -9 -12 8 -45 -45 -43 -69 1 -15 -1 -16 -7 -6 -7 11 -14
4 -30 -25 -12 -21 -37 -60 -56 -86 l-35 -48 127 0 128 1 98 149 c54 83 103
150 108 150 4 0 13 -10 20 -22 6 -13 27 -39 46 -59 19 -20 33 -40 31 -45 -2
-5 22 -46 52 -91 l55 -82 128 -1 c73 0 127 4 127 9 0 6 -12 23 -26 38 -17 19
-24 22 -20 10 4 -11 2 -16 -5 -12 -5 4 -8 14 -5 23 6 20 -29 66 -43 58 -5 -4
-13 -2 -16 4 -4 6 -3 10 2 9 21 -4 21 3 2 25 -12 13 -20 27 -20 30 1 4 -18 32
-41 64 -23 31 -65 91 -93 132 l-51 76 17 29 c10 17 24 37 31 45 31 34 67 101
62 114 -3 8 -1 17 5 21 7 3 8 0 5 -9 -13 -34 6 -13 56 59 28 42 48 80 45 86
-4 5 -1 8 7 7 7 -2 12 3 10 10 -1 8 2 11 7 7 6 -3 17 8 26 25 l16 30 -93 1
c-51 0 -104 2 -117 3 -13 2 -32 -5 -43 -16z m-424 -224 c9 -24 2 -26 -12 -4
-7 11 -8 20 -3 20 5 0 12 -7 15 -16z m431 -64 c-4 -6 -1 -19 6 -28 12 -16 12
-16 -5 0 -16 14 -15 38 0 38 3 0 2 -5 -1 -10z m100 -372 c5 4 5 1 1 -6 -6 -10
-11 -10 -22 -1 -8 6 -14 14 -14 16 0 3 6 0 13 -6 8 -6 18 -7 22 -3z m-145 -73
c0 -12 -19 -12 -23 0 -4 9 -1 12 9 8 7 -3 14 -7 14 -8z m-339 -108 c-10 -9
-11 -8 -5 6 3 10 9 15 12 12 3 -3 0 -11 -7 -18z m-24 -9 c-3 -8 -6 -5 -6 6 -1
11 2 17 5 13 3 -3 4 -12 1 -19z"/>
<path d="M10190 4748 c-3 -241 2 -822 6 -835 5 -15 4 -16 -6 -3 -9 13 -11 12
-8 -5 3 -19 11 -20 113 -20 l110 0 3 443 3 442 -111 0 c-107 0 -110 -1 -110
-22z"/>
</g>
</svg>
